<!-- Generated by IcoMoon.io -->
<svg version="1.1" xmlns="http://www.w3.org/2000/svg" width="1024" height="1024" viewBox="0 0 1024 1024">
<title></title>
<g id="icomoon-ignore">
</g>
<path d="M928 128h-832c-52.928 0-96 43.072-96 96v576c0 52.928 43.072 96 96 96h832c52.928 0 96-43.072 96-96v-576c0-52.928-43.072-96-96-96zM928 192c4.352 0 8.512 0.896 12.288 2.496l-428.288 371.2-428.288-371.2c3.627-1.568 7.849-2.485 12.284-2.496h832.004zM928 832h-832c-17.673 0-32-14.327-32-32v0-537.92l427.008 370.112c5.586 4.875 12.942 7.848 20.992 7.848s15.406-2.973 21.030-7.88l-0.038 0.032 427.008-370.112v537.92c0 17.673-14.327 32-32 32v0z"></path>
</svg>
